<svg width="225" height="204" viewBox="0 0 225 204" fill="none" xmlns="http://www.w3.org/2000/svg">
<path d="M110.479 82.5111C107.683 91.9988 102.691 100.068 97.7604 108.521C94.3029 114.448 92.2195 121.205 88.6756 127.027C85.9645 131.481 83.1112 136.934 81.4078 141.865C80.7332 143.818 79.6806 149.391 77.7739 150.344" stroke="black" stroke-width="3" stroke-linecap="round"/>
<path d="M93.5209 120.667C109.567 119.225 124.989 117.033 141.132 117.033C147.02 117.033 152.909 117.033 158.797 117.033C161.062 117.033 163.328 117.033 165.594 117.033C167.083 117.033 170.148 117.954 168.622 116.428" stroke="black" stroke-width="3" stroke-linecap="round"/>
<path d="M85.0417 50.4115C92.0227 58.3553 98.1856 66.5836 105.634 74.032C111.268 79.666 115.438 86.4104 120.472 92.5044C124.254 97.082 127.037 103.039 131.206 107.208C132.921 108.924 134.48 110.751 136.219 112.491C137.332 113.603 140.381 116.352 137.734 115.822" stroke="black" stroke-width="3" stroke-linecap="round"/>
<path d="M76.5626 151.556C92.6227 149.793 108.144 144.893 124.409 144.893C139.226 144.893 154.097 144.288 168.958 144.288C183.18 144.288 225.845 144.288 211.623 144.288" stroke="black" stroke-width="3" stroke-linecap="round"/>
<path d="M83.2247 49.2002C79.4189 56.8118 75.4653 64.4356 72.323 72.3496C67.7207 83.9404 64.0822 95.8936 59.1332 107.343C54.6701 117.668 50.0214 128.011 46.1453 138.568C43.1933 146.607 40.5237 155.069 37.1951 162.928C32.322 174.434 19.8357 209.793 24.4764 198.191" stroke="black" stroke-width="3" stroke-linecap="round"/>
<path d="M5.70111 176.387C9.52119 182.234 13.8472 187.871 17.545 193.682C18.5585 195.275 19.4601 196.939 20.7079 198.326C21.2854 198.967 23.2651 202.163 23.2651 201.825" stroke="black" stroke-width="3" stroke-linecap="round"/>
<path d="M2.06718 176.993C10.8421 161.155 17.2339 144.186 25.2166 127.935C33.1319 111.822 37.9907 94.4921 44.4629 77.8005C47.8687 69.0171 52.1949 59.6957 56.9125 51.5555C61.2341 44.0985 63.1404 35.2508 66.2664 27.2621C68.1848 22.3597 70.3128 17.5931 72.323 12.7264C72.8102 11.5469 77.8233 2.40108 74.7456 3.17052" stroke="black" stroke-width="3" stroke-linecap="round"/>
<path d="M77.1682 4.38181C80.2609 11.973 85.5419 16.9657 90.4926 23.2917C95.2448 29.3639 98.9356 35.9147 104.153 41.6295C109.227 47.1865 114.206 52.8707 120.17 57.5447C126.191 62.2643 130.056 69.4171 135.917 74.3011C142.089 79.4445 147.73 85.9441 153.178 91.8651C156.943 95.9579 161.484 99.9087 164.853 104.315C166.575 106.566 168.63 110.499 170.742 112.188C172.56 113.642 174.283 114.806 172.256 116.428" stroke="black" stroke-width="3" stroke-linecap="round"/>
<path d="M75.3512 4.38181C84.5072 4.38181 93.2349 1.9592 102.303 1.9592C104.221 1.9592 106.139 1.9592 108.057 1.9592C111.242 1.9592 115.779 1.47963 109.268 2.56485" stroke="black" stroke-width="3" stroke-linecap="round"/>
<path d="M111.085 2.56485C118.906 9.45236 124.96 16.7205 131.206 24.974C134.023 28.6962 136.463 32.7241 139.281 36.4814C142.493 40.763 146.623 44.3298 149.847 48.6282C155.517 56.1887 161.761 63.367 167.276 71.0037C169.3 73.8068 171.205 76.6765 173.232 79.4828C175.216 82.2305 177.881 85.7923 180.163 88.2648C182.821 91.1448 183.918 94.9471 186.657 97.787C189.229 100.454 191.398 103.579 193.756 106.434C198.548 112.235 202.934 118.316 207.72 124.167C211.401 128.665 215.649 133.048 218.857 137.861C219.517 138.85 220.438 139.863 221.179 140.788C221.604 141.319 222.665 143.076 222.525 143.076" stroke="black" stroke-width="3" stroke-linecap="round"/>
<path d="M23.2651 201.219C45.1078 195.218 68.0822 191.243 90.7618 190.923C99.7727 190.796 108.646 187.895 117.612 187.895C124.187 187.895 131.481 187.753 137.868 186.078C144.435 184.355 151.48 184.327 158.191 183.184C163.763 182.236 169.635 183.4 175.149 181.704C177.901 180.857 181.226 181.284 183.763 180.156C185.061 179.579 187.224 180.021 188.608 180.021C189.545 180.021 192.723 180.021 189.82 180.021" stroke="black" stroke-width="3" stroke-linecap="round"/>
<path d="M219.497 145.499C209.456 154.536 201.327 165.469 193.79 176.623C192.647 178.315 191.406 179.929 190.156 181.535C189.133 182.851 189.047 183.939 189.82 181.233" stroke="black" stroke-width="3" stroke-linecap="round"/>
</svg>
